<?xml version="1.0" encoding="utf-8"?>
<!-- Generator: Adobe Illustrator 23.0.1, SVG Export Plug-In . SVG Version: 6.00 Build 0)  -->
<svg version="1.1" id="Layer_2" xmlns="http://www.w3.org/2000/svg" xmlns:xlink="http://www.w3.org/1999/xlink" x="0px" y="0px"
	 viewBox="0 0 432 432" style="enable-background:new 0 0 432 432;" xml:space="preserve">
<path d="M33.59,314.74c24.76-7.13,48.87-16.43,71.89-27.64c-1.87,4.88-3.49,9.84-4.65,14.88c-22.2,9.49-43.26,21.84-62.42,36.5
	c0.46-1.93,0.87-4,0.77-5.24c-2.87-0.69-5.37-1.19-7.14-4.33c-2.31-4.1-0.78-8.73,0.92-12.75
	C33.15,315.69,33.38,315.22,33.59,314.74z M290.4,107.72c-7.7-2.89-20.1-0.24-25.47,6.24c-1.89,2.28,2.1,3.93,3.86,3.08
	c3.8-1.83,6.9-3.89,11.17-4.61c3.63-0.62,6.98-0.53,10.45-1.9C291.68,110.03,291.72,108.22,290.4,107.72z M290.1,115.77
	c-2.08-2.9-6.68-2.46-9.78-1.94c-3.37,0.57-7,1.99-9.23,4.68c-2.26,2.73,2.47,4.1,4.33,3.46c2.33-0.79,4.44-1.96,6.93-2.25
	c2.27-0.26,4.65,0.32,6.73-0.83C290.22,118.26,290.97,116.99,290.1,115.77z M327.46,210.15c-1.55-13.84-13.79-19.3-25.22-23.66
	c-0.99-0.38-1.35-1.09-1.29-1.81c-0.2-0.86,0.13-1.79,1.28-2.3c11.73-5.2,26.86-2.94,38.31,2.66c-0.53-5.14-1.81-10.18-3.92-14.9
	c-1.07-2.38-2.33-4.55-3.91-6.61c-0.75-0.98-1.56-1.81-2.19-2.75c-0.3-0.12-0.6-0.24-0.91-0.37c-1.8-0.73-1.29-3.29,0.57-3.5
	c8.02-0.89,16.26,3.51,21.56,9.33c0.88,0.97,1.76,2.09,2.6,3.31c-0.16-0.67-0.31-1.36-0.41-2.07c-0.95-6.66,0.55-12.88-3.26-18.89
	c-2.58-4.07-6.11-7.41-9.14-11.12c-7.01-8.58-7.99-17.89-7.8-28.65c0.21-12.33-0.21-24.66-2.2-36.85
	c-1.15-7.05-2.81-14.03-5.05-20.82c-1.61-4.88-3.4-10.02-6.84-13.95c-8.66-9.88-22.69,1.72-30.35,7.89
	c-8.01,6.46-14.97,14.11-20.61,22.72c-4.27,6.53-7.08,13.68-10.37,20.62c-0.15,5.83-1.1,12.13-2.58,17.41
	c-1.17,4.16-4.03,7.32-8.14,7.85c-0.07,0.7-0.17,1.39-0.29,2.07c0.45-0.45,0.89-0.87,1.34-1.22c0.93-0.72,3.65-0.57,3.42,1.13
	c-0.72,5.45-5.25,10.1-11.02,9.99c-4.56-0.09-10.62-4.64-10.12-9.61c0.16-1.56,2.3-2.08,3.42-1.13c2.31,1.96,4.07,6.47,7.71,5.23
	c0.06-0.02,0.12-0.06,0.18-0.08c-0.06-0.32-0.1-0.64-0.14-0.96c-2.18-1.7-2.88-5.49-3.29-8.2c-5.44-5.33-4.06-16.76-2.55-23.59
	c2.92-13.26,10.4-25.21,19.81-34.84c4.84-4.95,10.21-9.33,15.92-13.24c5.43-3.71,11.53-7.82,17.94-9.45
	c2.05-0.52,4.45,1.69,2.5,3.43c-2.47,2.21-5.48,3.98-8.47,5.71c0.58,0.38,1.08,0.9,1.45,1.48c2.41-1.91,4.91-3.7,7.51-5.37
	c8.75-5.62,19.74-11.3,29.29-4.02c8.61,6.56,11.66,19.41,14.04,29.31c3.24,13.48,4.55,27.37,4.63,41.21
	c0.04,7.17-0.89,14.73,0.8,21.78c1.39,5.83,5.01,10.18,8.87,14.55c3.59,4.08,7.38,8.26,9.15,13.51c2,5.93,0.71,12.53,2.85,18.35
	c4.26,11.56,18.06,15.93,25.58,24.91c3.47,4.15,5.99,9.68,5.73,15.18c-0.11,2.3-0.77,4.31-1.64,6.42c-0.37,0.89-1.2,2.19-1.35,3.4
	c-7.86-1.36-15.74-2.33-23.53-2.96c-13.37-1.08-26.89-1.03-40.29,0.24C327.58,214.73,327.72,212.45,327.46,210.15z M281.08,42.15
	c-0.01-0.01-0.02-0.03-0.04-0.05c-0.02,0.01-0.04,0.01-0.07,0.02C281.01,42.13,281.05,42.14,281.08,42.15z M277.82,159.65
	c-1.44-0.05-2.73-0.01-3.93,0.1c0.62-4.73-3.49-9.49-8.91-9.78c-1.86-0.1-1.84,2,0,2.1c5.24,0.28,7.74,6.62,4.5,10.61
	c-3.85,4.73-10.18,1.16-10.47-4.18c-0.08-1.42-3.08-1.4-3,0c0.21,3.85,2.73,6.71,5.88,7.9c-1.09,1.78-1.76,3.65-2.39,5.24
	c-1.96,4.89,0.49,9.29,17.84,9.53c12.04,0.17,15.89-6.36,15.89-10.02C293.22,167.48,288.83,160.03,277.82,159.65z M403.82,243.28
	c2.66-6.04,2.96-12.48-0.61-16.72c-11.95-3.03-24.14-5.19-36.72-6.18c-13.58-1.07-27.13-0.92-40.58,0.31
	c-0.33,1.15-0.46,2.3,0.09,3.53c1.76,3.91,8.56,4.15,11.93,5.77c9.07,4.36,14.95,11.58,18,19.95c3.62,1.06,7.22,2.21,10.81,3.47
	c12.9,4.54,25.39,10.23,37.37,16.83c0.34,0.19,0.68,0.38,1.02,0.57c0.04-0.31,0.09-0.62,0.13-0.92c0.13-1.14,0.2-2.36,0.19-3.63
	c1.46-0.07,2.86-0.75,3.34-2.17C411.29,256.58,409.28,248.72,403.82,243.28z M287.26,126.14c2.07,0.26,3.94,0.35,6.02,0.01
	c1.13-0.19,2.28-1.19,2.28-2.4c0-1.2-1.15-2.21-2.28-2.4c-2.07-0.34-3.94-0.25-6.02,0.01c-1.12,0.14-2.27,1.22-2.27,2.39
	C284.99,124.92,286.13,126,287.26,126.14z M306.41,165.28c3.42-1.96-0.49-12.71-11.24-19.8c0,0,1.96-9.29-12.47-14.18
	c-14.42-4.89-32.26,3.91-37.4,16.87s0,20.78,4.64,22.73c0,0-5.87-13.2,6.36-22.73c12.22-9.53,35.44-4.16,41.06,4.64
	c5.62,8.8,1.47,16.38-1.47,20.04C295.9,172.85,302.99,167.23,306.41,165.28z M37.05,344.83c-0.29,2.5-0.31,4.94,0.06,7.53
	c0.29,2.04,3.81,3.12,4.91,1.06c0.74-1.37,1.34-2.77,1.86-4.18c2.42,1.79,5.9,2.3,8.47,0.64c0.82-0.53,1.56-1.13,2.26-1.77
	c0.28,0.06,0.56,0.09,0.85,0.11c-0.27,0.29-0.55,0.58-0.82,0.88c-3.59,3.96-8.72,9.11-10.41,14.23c-1.09,3.29,3.71,3.93,5.64,2.63
	c4.03-2.72,7.01-7.35,10.35-10.87c3.61-3.81,7.21-7.6,11.27-10.96c7.39-6.12,15.8-10.55,25.27-12.37c2.14-0.41,3.35-2.13,3-4.22
	c-1.2-7-0.99-13.87,0.12-20.6C77.44,316.88,56.28,329.62,37.05,344.83z M138.02,184.27c-0.32-4.18-4.12-8-8.96-8.26
	c-1.86-0.1-1.84,2,0,2.1c5.24,0.28,7.74,6.62,4.5,10.61c-3.85,4.73-10.18,1.16-10.47-4.18c-0.08-1.42-3.08-1.4-3,0
	c0.22,4.15,3.13,7.15,6.62,8.15c-2.63,6.36,0.65,11.23,0.65,11.23s9.11,2.86,16.39,1.82s13.79-6.5,13.79-6.5s2.08-5.46-3.12-10.93
	C151.23,184.95,144.23,183.28,138.02,184.27z M191.14,289.4c-0.03,0.01-0.06,0.03-0.1,0.04
	C189.35,290.14,189.77,290.31,191.14,289.4z M120.6,217.82c-6.93,1.44-12.3,6.01-19.39,1.68c-5.43-3.31-6.81-8.65-9.89-13.71
	c-0.41-0.68-1.24-0.93-2.02-0.83c-0.28-0.08-0.59-0.07-0.83,0.05c-4.3,2.13-6.25,7.71-7.62,12.05c-0.38,1.2-0.7,2.41-0.96,3.64
	c-1.18-2.67-1.73-5.54-1.1-8.76c1.14-5.76,5.16-9.81,10.34-12.22c1.3-0.6,2.52-2.57,1.27-3.86c-2.01-2.09-1.84-4.97-3.98-6.74
	c-0.38-0.32-1.01-0.36-1.45-0.15c-2.64,1.28-2.77,4.03-2.02,6.58c-5.94,2.34-10.44,7.74-12.17,13.95
	c-1.91,6.85,0.22,12.74,3.76,18.18c-10.24,1.19-20.37,4.61-27.78,12.01c-0.56,0.56-1.1,1.15-1.62,1.75
	c-2.16-6.11-6.29-11.79-6.21-18.34c0.05-3.84,2.83-6.07,3.41-9.6c0.47-2.85-0.8-5.36-2.56-7.54c-4.27-5.25-9.3-9.25-12.62-15.33
	c-3.49-6.4-5.53-13.68-5.76-20.96c-0.25-7.6,0.33-14.23-2.38-21.5c-2.69-7.23-5.89-13.96-7.27-21.63
	c-2.14-11.89-2.15-30.12,5.85-40.88c4.16-1.74,9.63-1.95,13.16-1.99c6.39-0.08,12.7,0.75,18.88,2.36c12.02,3.13,23.39,9,33.8,15.7
	c9.27,5.97,17.95,12.86,25.83,20.57c4.86,4.76,9.02,10.13,13.29,15.38c-6.63-2.16-15.18-1.82-20.01,1.64
	c-1.53,1.09-0.51,3.33,1.16,3.53c0.16,0.02,0.32,0.02,0.48,0.04c-4.51,1.16-8.8,3.11-12.1,5.32c-2.3,1.54,0.76,3.44,2.36,3.24
	c4.24-0.53,8.36-1.89,12.55-2.7c4.46-0.86,8.58-0.42,13.07-0.25c2.83,0.11,4.31-3.23,1.58-4.66c-0.07-0.04-0.15-0.06-0.22-0.1
	c1.98,0.37,3.96,0.73,6.01,0.88c0.33,0.03,0.64-0.02,0.92-0.11c1.21,1.33,2.44,2.64,3.73,3.89c0.67,0.65,2.08,0.56,2.85-0.05
	c1.35,0.03,2.78-0.36,3.88-0.87c2.86-1.34,5.44-3.89,6.97-6.63c2.13-3.82,1.97-11.52-2.72-12.78c0.77-0.02,1.54,0.02,2.3,0.2
	c2.39,0.57,4.01,2.52,6.44,2.86c1.62,0.23,4.28-0.68,3.55-2.84c-1.01-2.95-5.35-4.65-8.21-5.19c-2.97-0.56-6.68-0.4-9.57,0.83
	c-6.46-6.14-13.63-11.67-20.82-16.74c-10.4-7.35-21.46-13.79-33.46-18.16c-11.84-4.32-24.04-7.78-36.59-9.18
	c-7.13-0.8-15.02-1.49-21.98,0.59c-4.75,0.95-9.16,2.8-11.39,6.24c-6.46,7.19-8.44,19.51-8.7,28.31
	c-0.25,8.45,1.14,16.85,4.11,24.76c1.44,3.85,3.3,7.55,4.6,11.45c1.49,4.45,1.7,8.65,1.59,13.3c-0.36,14.64,4.07,28.65,14.37,39.35
	c3.17,3.29,8.06,6.07,5.43,11.14c-1.58,3.04-3,5.34-3.1,8.91c-0.23,8.09,5.32,15,7.08,22.64c0.02,0.11,0.07,0.19,0.1,0.29
	c-10.57,12.28-11.14,31.53-1.29,44.46c1.16,1.52,2.83,2.77,3.91,4.32c2.19,3.14,0.17,5.13-1.67,7.9c-1.21,1.83-2.35,3.72-3.41,5.65
	c10.84-3.33,21.56-7.05,32.1-11.19c13.84-5.42,27.13-11.68,40.12-18.46c1.83-4.24,3.78-8.42,5.7-12.54
	c1.54-3.3,3.33-6.48,1.89-10.14c-1.46-3.7-4.99-6.15-6.49-9.97c-2.6-6.61-1.78-13.59,0.96-19.85c4.79-0.4,9.51-2.2,12.84-5.28
	C125.72,219.69,122.96,217.33,120.6,217.82z M270.97,273.56c-7.58-4.4-16.38-15.89-25.42-28.11c-9.04-12.22-20.04-11.98-20.04-11.98
	l-3.18-22c0,0,2.97-2,4.43-3.15c7.45-5.85,5.44-12.77,4.01-15.81c-0.28-0.22-0.55-0.44-0.8-0.67c-2.73-2.52-3.86-8.2,0-10.3
	c4.21-2.29,7.93,1.28,9.85,4.69c0.35,0.62,0.68,1.25,0.99,1.89c1.43-0.34,3-0.7,4.75-1.09c11-2.44-8.55-27.38-35.44-20.53
	s-27.13,32.75-21.75,31.78c1.47-0.27,3.48-0.55,5.62-0.83c0.07-0.19,0.14-0.37,0.21-0.57c0.74-2.36,1.18-4.8,2.53-6.92
	c1.73-2.72,5.51-5.04,8.65-3.04c2.82,1.8,2.37,6.44,1.14,9.05c-0.13,0.29-0.28,0.57-0.45,0.86c-0.22,1.47-0.43,4.85,1.61,7.81
	c2.69,3.91,11,6.84,11,6.84l4.4,22.49c-16.13,4.16-19.31,30.31-23.46,43.02c-2.46,7.53-6.46,11.11-8.46,12.43
	c4.1-1.68,7.09-2.08,19.46-22.94c12.47-21.02,32.75-13.44,45.46-2.2S278.55,277.96,270.97,273.56z M389.16,299.05
	c3.43-0.81,6.85-2.66,9.39-4.37c4-2.71,9.92-8.1,9.74-13.31c-0.07-2.03-3.21-2.85-4.56-1.51c-0.86,0.85-1.6,1.77-2.29,2.72
	c1.17-2.41,2.1-4.93,2.77-7.4c-1.36-0.79-2.73-1.57-4.11-2.33c-10.97-6.03-22.38-11.3-34.14-15.6c-2.88-1.05-5.79-2.05-8.73-2.99
	c2.95,12.2,0.45,26.08-6.58,36.94c-1.7,2.63,0.98,4.77,3.5,4.88c20.21,0.87,35.79,11.42,50.86,23.9c1.52,1.26,4.55-0.01,3.42-2.11
	C404.12,309.8,397.23,303.59,389.16,299.05z M111.16,158.5c1.58-0.15,3.08-1.28,2.12-2.96c-1.45-2.53-5.48-3.03-8.1-3.13
	c-2.78-0.1-6.03,0.27-8,2.38c-0.94,1.01,0.29,2.32,1.28,2.52c2.08,0.42,4.17-0.1,6.28,0.15C106.87,157.71,109.01,158.7,111.16,158.5
	z M165.87,168.21c-4.89-6.6-15.64-14.91-30.55-14.91s-32.26,17.84-23.22,26.89c0,0-3.67,6.36-4.16,10.51s-2.69,7.09-4.4,8.31
	c-1.71,1.22,4.64,4.4,19.07,4.64c0,0-10.75-2.93-9.29-13.2c1.47-10.27,12.22-26.4,35.69-23.71s17.35,26.15,13.2,30.31
	c0,0,10.51-6.11,12.71-18.33C174.91,178.72,170.76,174.81,165.87,168.21z M98.33,161.73c-0.54,0.23-1.05,0.54-1.53,0.88
	c-0.73,0.51-1.03,1.01-1.16,1.88c-0.18,1.13,1.43,1.91,2.32,1.86c0.62-0.04,1.14-0.14,1.69-0.42c0.16-0.08,0.3-0.17,0.46-0.24
	c0.04-0.02,0.34-0.13,0.43-0.18c0.09-0.02,0.28-0.07,0.3-0.07c0.17-0.04,0.34-0.06,0.52-0.09c0.38-0.06,0.74-0.17,1.12-0.23
	c0.91-0.16,1.85-0.96,1.85-1.94c0-0.97-0.93-1.79-1.85-1.94C100.99,160.99,99.72,161.14,98.33,161.73z"/>
</svg>
